<?xml version="1.0" encoding="UTF-8" standalone="no"?>
<!-- Created with Inkscape (http://www.inkscape.org/) -->

<svg
   version="1.1"
   id="svg2"
   xml:space="preserve"
   width="1217.3333"
   height="870.66669"
   viewBox="0 0 1217.3333 870.66669"
   xmlns="http://www.w3.org/2000/svg"
   xmlns:svg="http://www.w3.org/2000/svg"><defs
     id="defs6" /><g
     id="g8"
     transform="matrix(1.3333333,0,0,1.3333333,0,2.51e-5)"><g
       id="g10"><path
         d="m 472.5,490.367 h 96 v 36 h -96 z"
         style="fill:#ffd700;fill-opacity:1;fill-rule:nonzero;stroke:#000000;stroke-width:1;stroke-linecap:butt;stroke-linejoin:miter;stroke-miterlimit:10;stroke-dasharray:none;stroke-opacity:1"
         id="path12" /><text
         transform="translate(480.5,512.07031)"
         style="font-variant:normal;font-weight:normal;font-size:14.0002px;font-family:'DejaVu Serif';-inkscape-font-specification:DejaVuSerif;writing-mode:lr-tb;fill:#000000;fill-opacity:1;fill-rule:nonzero;stroke:none"
         id="text16"><tspan
           x="0 6.7481174 11.214195 19.48834 24.72443 30.716536 40.460705 52.430912 56.938992 62.931095 70.421227"
           y="0"
           id="tspan14">_leftSwitch</tspan></text><path
         d="m 211,577.367 h 107 v 36 H 211 Z"
         style="fill:#ffd700;fill-opacity:1;fill-rule:nonzero;stroke:#000000;stroke-width:1;stroke-linecap:butt;stroke-linejoin:miter;stroke-miterlimit:10;stroke-dasharray:none;stroke-opacity:1"
         id="path18" /><text
         transform="translate(219,599.07031)"
         style="font-variant:normal;font-weight:normal;font-size:14.0002px;font-family:'DejaVu Serif';-inkscape-font-specification:DejaVuSerif;writing-mode:lr-tb;fill:#000000;fill-opacity:1;fill-rule:nonzero;stroke:none"
         id="text22"><tspan
           x="0 6.7481174 13.496235 17.962313 26.99247 36.008629 41.972733 51.7169 63.687111 68.19519 74.187294 81.691422"
           y="0"
           id="tspan20">_rightSwitch</tspan></text><path
         d="m 472.348,525.355 c -44.61,14.813 -110.762,36.778 -156.399,51.93"
         style="fill:none;stroke:#ff0000;stroke-width:1;stroke-linecap:butt;stroke-linejoin:miter;stroke-miterlimit:10;stroke-dasharray:none;stroke-opacity:1"
         id="path24" /><text
         transform="translate(408.5,555.57031)"
         style="font-variant:normal;font-weight:normal;font-size:14.0002px;font-family:'DejaVu Serif';-inkscape-font-specification:DejaVuSerif;writing-mode:lr-tb;fill:#000000;fill-opacity:1;fill-rule:nonzero;stroke:none"
         id="text28"><tspan
           x="0 10.486183 16.478287"
           y="0"
           id="tspan26">Eth</tspan></text><path
         d="m 427,338.176 h 101 v 36 H 427 Z"
         style="fill:#ffd700;fill-opacity:1;fill-rule:nonzero;stroke:#000000;stroke-width:1;stroke-linecap:butt;stroke-linejoin:miter;stroke-miterlimit:10;stroke-dasharray:none;stroke-opacity:1"
         id="path30" /><text
         transform="translate(435,359.875)"
         style="font-variant:normal;font-weight:normal;font-size:14.0002px;font-family:'DejaVu Serif';-inkscape-font-specification:DejaVuSerif;writing-mode:lr-tb;fill:#000000;fill-opacity:1;fill-rule:nonzero;stroke:none"
         id="text34"><tspan
           x="0 9.0161572 16.492287 25.494444 32.984573 41.25872 47.950836 56.210979 64.485123 71.177238 75.685318"
           y="0"
           id="tspan32">ns3server-1</tspan></text><path
         d="m 482.434,374.406 c 8.293,28.973 24.933,87.098 33.191,115.934"
         style="fill:none;stroke:#ff0000;stroke-width:1;stroke-linecap:butt;stroke-linejoin:miter;stroke-miterlimit:10;stroke-dasharray:none;stroke-opacity:1"
         id="path36" /><text
         transform="translate(510.5,468.57031)"
         style="font-variant:normal;font-weight:normal;font-size:14.0002px;font-family:'DejaVu Serif';-inkscape-font-specification:DejaVuSerif;writing-mode:lr-tb;fill:#000000;fill-opacity:1;fill-rule:nonzero;stroke:none"
         id="text40"><tspan
           x="0 10.486183 16.478287"
           y="0"
           id="tspan38">Eth</tspan></text><path
         d="m 546,338.176 h 109 v 36 H 546 Z"
         style="fill:#90ee90;fill-opacity:1;fill-rule:nonzero;stroke:#000000;stroke-width:1;stroke-linecap:butt;stroke-linejoin:miter;stroke-miterlimit:10;stroke-dasharray:none;stroke-opacity:1"
         id="path42" /><text
         transform="translate(554,359.875)"
         style="font-variant:normal;font-weight:normal;font-size:14.0002px;font-family:'DejaVu Serif';-inkscape-font-specification:DejaVuSerif;writing-mode:lr-tb;fill:#000000;fill-opacity:1;fill-rule:nonzero;stroke:none"
         id="text46"><tspan
           x="0 11.998209 17.248301 27.748484 32.228561 39.732693 47.964836 54.726955 59.207031 68.20919 74.201294 78.681374 87.683525"
           y="0"
           id="tspan44">NIC-ser-qt.0.</tspan></text><path
         d="m 591.762,374.461 c -11.5,22.629 -32.461,63.469 -51.262,97.906 -3.219,5.899 -6.836,12.297 -10.102,17.988"
         style="fill:none;stroke:#ff0000;stroke-width:1;stroke-linecap:butt;stroke-linejoin:miter;stroke-miterlimit:10;stroke-dasharray:none;stroke-opacity:1"
         id="path48" /><text
         transform="translate(547.5,468.57031)"
         style="font-variant:normal;font-weight:normal;font-size:14.0002px;font-family:'DejaVu Serif';-inkscape-font-specification:DejaVuSerif;writing-mode:lr-tb;fill:#000000;fill-opacity:1;fill-rule:nonzero;stroke:none"
         id="text52"><tspan
           x="0 10.486183 16.478287"
           y="0"
           id="tspan50">Eth</tspan></text><path
         d="m 673.484,130.992 c 0,50.25 -40.734,90.985 -90.984,90.985 -50.25,0 -90.984,-40.735 -90.984,-90.985 0,-50.25 40.734,-90.984 90.984,-90.984 50.25,0 90.984,40.734 90.984,90.984"
         style="fill:#98f5ff;fill-opacity:1;fill-rule:nonzero;stroke:none"
         id="path54" /><path
         d="m 673.484,130.992 c 0,50.25 -40.734,90.985 -90.984,90.985 -50.25,0 -90.984,-40.735 -90.984,-90.985 0,-50.25 40.734,-90.984 90.984,-90.984 50.25,0 90.984,40.734 90.984,90.984"
         style="fill:none;stroke:#000000;stroke-width:1;stroke-linecap:butt;stroke-linejoin:miter;stroke-miterlimit:10;stroke-dasharray:none;stroke-opacity:1"
         id="path56" /><text
         transform="translate(520.5,134.69141)"
         style="font-variant:normal;font-weight:normal;font-size:14.0002px;font-family:'DejaVu Serif';-inkscape-font-specification:DejaVuSerif;writing-mode:lr-tb;fill:#000000;fill-opacity:1;fill-rule:nonzero;stroke:none"
         id="text60"><tspan
           x="0 7.5041308 15.736275 22.484392 30.716536 38.990681 45.682796 50.204876 59.193031 63.687111 71.177238 79.451385 86.143501 90.651581 99.65374 105.64584 110.12592 119.12807"
           y="0"
           id="tspan58">server-1-ser-qt.0.</tspan></text><path
         d="m 589.742,221.805 c 3.5,43.363 7.363,91.293 9.371,116.203"
         style="fill:none;stroke:#00ff00;stroke-width:1;stroke-linecap:butt;stroke-linejoin:miter;stroke-miterlimit:10;stroke-dasharray:none;stroke-opacity:1"
         id="path62" /><text
         transform="translate(592.5,251.18359)"
         style="font-variant:normal;font-weight:normal;font-size:14.0002px;font-family:'DejaVu Serif';-inkscape-font-specification:DejaVuSerif;writing-mode:lr-tb;fill:#000000;fill-opacity:1;fill-rule:nonzero;stroke:none"
         id="text66"><tspan
           x="0 9.7441702 20.230352 25.480444"
           y="0"
           id="tspan64">PCIe</tspan></text><path
         d="m 692,338.176 h 109 v 36 H 692 Z"
         style="fill:#90ee90;fill-opacity:1;fill-rule:nonzero;stroke:#000000;stroke-width:1;stroke-linecap:butt;stroke-linejoin:miter;stroke-miterlimit:10;stroke-dasharray:none;stroke-opacity:1"
         id="path68" /><text
         transform="translate(700,359.875)"
         style="font-variant:normal;font-weight:normal;font-size:14.0002px;font-family:'DejaVu Serif';-inkscape-font-specification:DejaVuSerif;writing-mode:lr-tb;fill:#000000;fill-opacity:1;fill-rule:nonzero;stroke:none"
         id="text72"><tspan
           x="0 11.998209 17.248301 27.748484 32.228561 39.732693 47.964836 54.726955 59.207031 68.20919 74.201294 78.681374 87.683525"
           y="0"
           id="tspan70">NIC-ser-gt.0.</tspan></text><path
         d="m 732.309,374.316 c -15.504,17.93 -41.758,46.059 -68.809,65.051 -30.258,21.25 -68.195,38.942 -97.391,50.949"
         style="fill:none;stroke:#ff0000;stroke-width:1;stroke-linecap:butt;stroke-linejoin:miter;stroke-miterlimit:10;stroke-dasharray:none;stroke-opacity:1"
         id="path74" /><text
         transform="translate(634.5,468.57031)"
         style="font-variant:normal;font-weight:normal;font-size:14.0002px;font-family:'DejaVu Serif';-inkscape-font-specification:DejaVuSerif;writing-mode:lr-tb;fill:#000000;fill-opacity:1;fill-rule:nonzero;stroke:none"
         id="text78"><tspan
           x="0 10.486183 16.478287"
           y="0"
           id="tspan76">Eth</tspan></text><path
         d="m 873.484,130.992 c 0,50.25 -40.734,90.985 -90.984,90.985 -50.25,0 -90.984,-40.735 -90.984,-90.985 0,-50.25 40.734,-90.984 90.984,-90.984 50.25,0 90.984,40.734 90.984,90.984"
         style="fill:#98f5ff;fill-opacity:1;fill-rule:nonzero;stroke:none"
         id="path80" /><path
         d="m 873.484,130.992 c 0,50.25 -40.734,90.985 -90.984,90.985 -50.25,0 -90.984,-40.735 -90.984,-90.985 0,-50.25 40.734,-90.984 90.984,-90.984 50.25,0 90.984,40.734 90.984,90.984"
         style="fill:none;stroke:#000000;stroke-width:1;stroke-linecap:butt;stroke-linejoin:miter;stroke-miterlimit:10;stroke-dasharray:none;stroke-opacity:1"
         id="path82" /><text
         transform="translate(720.5,134.69141)"
         style="font-variant:normal;font-weight:normal;font-size:14.0002px;font-family:'DejaVu Serif';-inkscape-font-specification:DejaVuSerif;writing-mode:lr-tb;fill:#000000;fill-opacity:1;fill-rule:nonzero;stroke:none"
         id="text86"><tspan
           x="0 7.5041308 15.736275 22.484392 30.716536 38.990681 45.682796 50.204876 59.193031 63.687111 71.177238 79.451385 86.143501 90.651581 99.65374 105.64584 110.12592 119.12807"
           y="0"
           id="tspan84">server-2-ser-gt.0.</tspan></text><path
         d="m 768.117,221.164 c -7.012,43.465 -14.785,91.668 -18.828,116.731"
         style="fill:none;stroke:#00ff00;stroke-width:1;stroke-linecap:butt;stroke-linejoin:miter;stroke-miterlimit:10;stroke-dasharray:none;stroke-opacity:1"
         id="path88" /><text
         transform="translate(764.5,251.18359)"
         style="font-variant:normal;font-weight:normal;font-size:14.0002px;font-family:'DejaVu Serif';-inkscape-font-specification:DejaVuSerif;writing-mode:lr-tb;fill:#000000;fill-opacity:1;fill-rule:nonzero;stroke:none"
         id="text92"><tspan
           x="0 9.7441702 20.230352 25.480444"
           y="0"
           id="tspan90">PCIe</tspan></text><path
         d="m 40,490.367 h 95 v 36 H 40 Z"
         style="fill:#ffd700;fill-opacity:1;fill-rule:nonzero;stroke:#000000;stroke-width:1;stroke-linecap:butt;stroke-linejoin:miter;stroke-miterlimit:10;stroke-dasharray:none;stroke-opacity:1"
         id="path94" /><text
         transform="translate(48,512.07031)"
         style="font-variant:normal;font-weight:normal;font-size:14.0002px;font-family:'DejaVu Serif';-inkscape-font-specification:DejaVuSerif;writing-mode:lr-tb;fill:#000000;fill-opacity:1;fill-rule:nonzero;stroke:none"
         id="text98"><tspan
           x="0 9.0161572 16.492287 25.494444 32.998573 37.464653 41.972733 50.204876 59.221031 65.199135 69.679214"
           y="0"
           id="tspan96">ns3client-1</tspan></text><path
         d="m 123.32,526.57 c 30.809,14.797 75.012,36.024 105.719,50.77"
         style="fill:none;stroke:#ff0000;stroke-width:1;stroke-linecap:butt;stroke-linejoin:miter;stroke-miterlimit:10;stroke-dasharray:none;stroke-opacity:1"
         id="path100" /><text
         transform="translate(187.5,555.57031)"
         style="font-variant:normal;font-weight:normal;font-size:14.0002px;font-family:'DejaVu Serif';-inkscape-font-specification:DejaVuSerif;writing-mode:lr-tb;fill:#000000;fill-opacity:1;fill-rule:nonzero;stroke:none"
         id="text104"><tspan
           x="0 10.486183 16.478287"
           y="0"
           id="tspan102">Eth</tspan></text><path
         d="m 153,490.367 h 103 v 36 H 153 Z"
         style="fill:#90ee90;fill-opacity:1;fill-rule:nonzero;stroke:#000000;stroke-width:1;stroke-linecap:butt;stroke-linejoin:miter;stroke-miterlimit:10;stroke-dasharray:none;stroke-opacity:1"
         id="path106" /><text
         transform="translate(161,512.07031)"
         style="font-variant:normal;font-weight:normal;font-size:14.0002px;font-family:'DejaVu Serif';-inkscape-font-specification:DejaVuSerif;writing-mode:lr-tb;fill:#000000;fill-opacity:1;fill-rule:nonzero;stroke:none"
         id="text110"><tspan
           x="0 11.998209 17.248301 27.748484 32.228561 39.732693 44.198769 48.706848 53.200928 62.203083 68.18119 72.67527 81.663422"
           y="0"
           id="tspan108">NIC-cli-qt.0.</tspan></text><path
         d="m 216.641,526.57 c 10.41,14.746 25.332,35.883 35.734,50.625"
         style="fill:none;stroke:#ff0000;stroke-width:1;stroke-linecap:butt;stroke-linejoin:miter;stroke-miterlimit:10;stroke-dasharray:none;stroke-opacity:1"
         id="path112" /><text
         transform="translate(238.5,555.57031)"
         style="font-variant:normal;font-weight:normal;font-size:14.0002px;font-family:'DejaVu Serif';-inkscape-font-specification:DejaVuSerif;writing-mode:lr-tb;fill:#000000;fill-opacity:1;fill-rule:nonzero;stroke:none"
         id="text116"><tspan
           x="0 10.486183 16.478287"
           y="0"
           id="tspan114">Eth</tspan></text><path
         d="m 224.887,356.176 c 0,46.054 -37.336,83.386 -83.387,83.386 -46.051,0 -83.387,-37.332 -83.387,-83.386 0,-46.051 37.336,-83.387 83.387,-83.387 46.051,0 83.387,37.336 83.387,83.387"
         style="fill:#98f5ff;fill-opacity:1;fill-rule:nonzero;stroke:#000000;stroke-width:1;stroke-linecap:butt;stroke-linejoin:miter;stroke-miterlimit:10;stroke-dasharray:none;stroke-opacity:1"
         id="path118" /><text
         transform="translate(85.5,359.875)"
         style="font-variant:normal;font-weight:normal;font-size:14.0002px;font-family:'DejaVu Serif';-inkscape-font-specification:DejaVuSerif;writing-mode:lr-tb;fill:#000000;fill-opacity:1;fill-rule:nonzero;stroke:none"
         id="text122"><tspan
           x="0 7.5041308 11.970208 16.478287 24.71043 33.726589 39.704693 44.184769 53.186928 57.681004 65.171135 69.637215 74.145294 78.639374 87.641525 93.619629 98.113708 107.10187"
           y="0"
           id="tspan120">client-1-cli-qt.0.</tspan></text><path
         d="m 173.367,433.152 c 8.977,21.391 17.906,42.688 23.887,56.946"
         style="fill:none;stroke:#00ff00;stroke-width:1;stroke-linecap:butt;stroke-linejoin:miter;stroke-miterlimit:10;stroke-dasharray:none;stroke-opacity:1"
         id="path124" /><text
         transform="translate(189.5,468.57031)"
         style="font-variant:normal;font-weight:normal;font-size:14.0002px;font-family:'DejaVu Serif';-inkscape-font-specification:DejaVuSerif;writing-mode:lr-tb;fill:#000000;fill-opacity:1;fill-rule:nonzero;stroke:none"
         id="text128"><tspan
           x="0 9.7441702 20.230352 25.480444"
           y="0"
           id="tspan126">PCIe</tspan></text><path
         d="m 274,490.367 h 103 v 36 H 274 Z"
         style="fill:#90ee90;fill-opacity:1;fill-rule:nonzero;stroke:#000000;stroke-width:1;stroke-linecap:butt;stroke-linejoin:miter;stroke-miterlimit:10;stroke-dasharray:none;stroke-opacity:1"
         id="path130" /><text
         transform="translate(282,512.07031)"
         style="font-variant:normal;font-weight:normal;font-size:14.0002px;font-family:'DejaVu Serif';-inkscape-font-specification:DejaVuSerif;writing-mode:lr-tb;fill:#000000;fill-opacity:1;fill-rule:nonzero;stroke:none"
         id="text134"><tspan
           x="0 11.998209 17.248301 27.748484 32.228561 39.732693 44.198769 48.706848 53.200928 62.203083 68.18119 72.67527 81.663422"
           y="0"
           id="tspan132">NIC-cli-gt.0.</tspan></text><path
         d="m 313.156,526.57 c -10.582,14.746 -25.754,35.883 -36.332,50.625"
         style="fill:none;stroke:#ff0000;stroke-width:1;stroke-linecap:butt;stroke-linejoin:miter;stroke-miterlimit:10;stroke-dasharray:none;stroke-opacity:1"
         id="path136" /><text
         transform="translate(299.5,555.57031)"
         style="font-variant:normal;font-weight:normal;font-size:14.0002px;font-family:'DejaVu Serif';-inkscape-font-specification:DejaVuSerif;writing-mode:lr-tb;fill:#000000;fill-opacity:1;fill-rule:nonzero;stroke:none"
         id="text140"><tspan
           x="0 10.486183 16.478287"
           y="0"
           id="tspan138">Eth</tspan></text><path
         d="m 408.887,356.176 c 0,46.054 -37.336,83.386 -83.387,83.386 -46.051,0 -83.387,-37.332 -83.387,-83.386 0,-46.051 37.336,-83.387 83.387,-83.387 46.051,0 83.387,37.336 83.387,83.387"
         style="fill:#98f5ff;fill-opacity:1;fill-rule:nonzero;stroke:#000000;stroke-width:1;stroke-linecap:butt;stroke-linejoin:miter;stroke-miterlimit:10;stroke-dasharray:none;stroke-opacity:1"
         id="path142" /><text
         transform="translate(269.5,359.875)"
         style="font-variant:normal;font-weight:normal;font-size:14.0002px;font-family:'DejaVu Serif';-inkscape-font-specification:DejaVuSerif;writing-mode:lr-tb;fill:#000000;fill-opacity:1;fill-rule:nonzero;stroke:none"
         id="text146"><tspan
           x="0 7.5041308 11.970208 16.478287 24.71043 33.726589 39.704693 44.184769 53.186928 57.681004 65.171135 69.637215 74.145294 78.639374 87.641525 93.619629 98.113708 107.10187"
           y="0"
           id="tspan144">client-2-cli-gt.0.</tspan></text><path
         d="m 325.5,439.742 c 0,19.223 0,37.785 0,50.586"
         style="fill:none;stroke:#00ff00;stroke-width:1;stroke-linecap:butt;stroke-linejoin:miter;stroke-miterlimit:10;stroke-dasharray:none;stroke-opacity:1"
         id="path148" /><text
         transform="translate(325.5,468.57031)"
         style="font-variant:normal;font-weight:normal;font-size:14.0002px;font-family:'DejaVu Serif';-inkscape-font-specification:DejaVuSerif;writing-mode:lr-tb;fill:#000000;fill-opacity:1;fill-rule:nonzero;stroke:none"
         id="text152"><tspan
           x="0 9.7441702 20.230352 25.480444"
           y="0"
           id="tspan150">PCIe</tspan></text></g></g></svg>
