<?xml version="1.0" encoding="UTF-8" standalone="no"?>
<!-- Created with Inkscape (http://www.inkscape.org/) -->

<svg
   version="1.1"
   id="svg2"
   xml:space="preserve"
   width="552"
   height="557.33331"
   viewBox="0 0 552 557.33331"
   xmlns="http://www.w3.org/2000/svg"
   xmlns:svg="http://www.w3.org/2000/svg"><defs
     id="defs6" /><g
     id="g8"
     transform="matrix(1.3333333,0,0,1.3333333,0,1.06e-5)"><g
       id="g10"><path
         d="m 192.129,121.895 c 0,42.019 -34.063,76.085 -76.086,76.085 -42.02,0 -76.086,-34.066 -76.086,-76.085 0,-42.024 34.066,-76.09 76.086,-76.09 42.023,0 76.086,34.066 76.086,76.09"
         style="fill:#98f5ff;fill-opacity:1;fill-rule:nonzero;stroke:none"
         id="path12" /><path
         d="m 192.129,121.895 c 0,42.019 -34.063,76.085 -76.086,76.085 -42.02,0 -76.086,-34.066 -76.086,-76.085 0,-42.024 34.066,-76.09 76.086,-76.09 42.023,0 76.086,34.066 76.086,76.09"
         style="fill:none;stroke:#000000;stroke-width:1;stroke-linecap:butt;stroke-linejoin:miter;stroke-miterlimit:10;stroke-dasharray:none;stroke-opacity:1"
         id="path14" /><text
         transform="translate(65.542969,125.59375)"
         style="font-variant:normal;font-weight:normal;font-size:14.0002px;font-family:'DejaVu Serif';-inkscape-font-specification:DejaVuSerif;writing-mode:lr-tb;fill:#000000;fill-opacity:1;fill-rule:nonzero;stroke:none"
         id="text18"><tspan
           x="0 9.0161572 17.248301 24.752432 30.730536 35.224613 42.714745 47.208824 56.210979 64.443123 77.939362 86.955513 91.393593"
           y="0"
           id="tspan16">host.s.qemu.1</tspan></text><path
         d="m 40.543,254.785 h 161 v 36 h -161 z"
         style="fill:#90ee90;fill-opacity:1;fill-rule:nonzero;stroke:#000000;stroke-width:1;stroke-linecap:butt;stroke-linejoin:miter;stroke-miterlimit:10;stroke-dasharray:none;stroke-opacity:1"
         id="path20" /><text
         transform="translate(48.542969,276.48437)"
         style="font-variant:normal;font-weight:normal;font-size:14.0002px;font-family:'DejaVu Serif';-inkscape-font-specification:DejaVuSerif;writing-mode:lr-tb;fill:#000000;fill-opacity:1;fill-rule:nonzero;stroke:none"
         id="text24"><tspan
           x="0 9.0161572 13.482235 20.986366 25.480444 32.970573 37.464653 46.424809 54.698952 68.19519 77.211342 81.649422 90.679581 95.15966 102.66379 110.90993 117.65805 122.15213 131.15428"
           y="0"
           id="tspan22">nic.s.qemu.1.cor-bm</tspan></text><path
         d="m 118.574,198.211 c 0.555,16.566 1.11,33.078 1.551,46.246"
         style="fill:none;stroke:#00ff00;stroke-width:1;stroke-linecap:butt;stroke-linejoin:miter;stroke-miterlimit:10;stroke-dasharray:none;stroke-opacity:1"
         id="path26" /><path
         d="m 123.629,244.551 -3.16,10.113 -3.836,-9.879 z"
         style="fill:#00ff00;fill-opacity:1;fill-rule:nonzero;stroke:#00ff00;stroke-width:1;stroke-linecap:butt;stroke-linejoin:miter;stroke-miterlimit:10;stroke-dasharray:none;stroke-opacity:1"
         id="path28" /><text
         transform="translate(120.04297,232.98437)"
         style="font-variant:normal;font-weight:normal;font-size:14.0002px;font-family:'DejaVu Serif';-inkscape-font-specification:DejaVuSerif;writing-mode:lr-tb;fill:#000000;fill-opacity:1;fill-rule:nonzero;stroke:none"
         id="text32"><tspan
           x="0 9.7441702 20.230352 25.480444"
           y="0"
           id="tspan30">PCIe</tspan></text><path
         d="m 373.828,121.895 c 0,45.167 -36.617,81.785 -81.785,81.785 -45.168,0 -81.785,-36.618 -81.785,-81.785 0,-45.172 36.617,-81.79 81.785,-81.79 45.168,0 81.785,36.618 81.785,81.79"
         style="fill:#98f5ff;fill-opacity:1;fill-rule:nonzero;stroke:none"
         id="path34" /><path
         d="m 373.828,121.895 c 0,45.167 -36.617,81.785 -81.785,81.785 -45.168,0 -81.785,-36.618 -81.785,-81.785 0,-45.172 36.617,-81.79 81.785,-81.79 45.168,0 81.785,36.618 81.785,81.79"
         style="fill:none;stroke:#000000;stroke-width:1;stroke-linecap:butt;stroke-linejoin:miter;stroke-miterlimit:10;stroke-dasharray:none;stroke-opacity:1"
         id="path36" /><text
         transform="translate(237.04297,125.59375)"
         style="font-variant:normal;font-weight:normal;font-size:14.0002px;font-family:'DejaVu Serif';-inkscape-font-specification:DejaVuSerif;writing-mode:lr-tb;fill:#000000;fill-opacity:1;fill-rule:nonzero;stroke:none"
         id="text40"><tspan
           x="0 9.0161572 17.248301 24.752432 30.730536 35.224613 42.714745 47.18082 51.7029 56.18298 65.185135 73.417282 86.913513 95.929672 100.40975"
           y="0"
           id="tspan38">host.cli-qemu.0</tspan></text><path
         d="m 227.543,254.785 h 121 v 36 h -121 z"
         style="fill:#90ee90;fill-opacity:1;fill-rule:nonzero;stroke:#000000;stroke-width:1;stroke-linecap:butt;stroke-linejoin:miter;stroke-miterlimit:10;stroke-dasharray:none;stroke-opacity:1"
         id="path42" /><text
         transform="translate(235.54297,276.48437)"
         style="font-variant:normal;font-weight:normal;font-size:14.0002px;font-family:'DejaVu Serif';-inkscape-font-specification:DejaVuSerif;writing-mode:lr-tb;fill:#000000;fill-opacity:1;fill-rule:nonzero;stroke:none"
         id="text46"><tspan
           x="0 9.0161572 13.482235 20.986366 25.480444 32.970573 37.436653 41.944733 46.438808 55.440968 63.673111 77.169342 86.185501 90.665581 99.65374"
           y="0"
           id="tspan44">nic.cli-qemu.0.</tspan></text><path
         d="m 289.867,203.875 c -0.39,14.574 -0.773,28.816 -1.086,40.461"
         style="fill:none;stroke:#00ff00;stroke-width:1;stroke-linecap:butt;stroke-linejoin:miter;stroke-miterlimit:10;stroke-dasharray:none;stroke-opacity:1"
         id="path48" /><path
         d="m 292.273,244.727 -3.769,9.902 -3.231,-10.09 z"
         style="fill:#00ff00;fill-opacity:1;fill-rule:nonzero;stroke:#00ff00;stroke-width:1;stroke-linecap:butt;stroke-linejoin:miter;stroke-miterlimit:10;stroke-dasharray:none;stroke-opacity:1"
         id="path50" /><text
         transform="translate(290.04297,232.98437)"
         style="font-variant:normal;font-weight:normal;font-size:14.0002px;font-family:'DejaVu Serif';-inkscape-font-specification:DejaVuSerif;writing-mode:lr-tb;fill:#000000;fill-opacity:1;fill-rule:nonzero;stroke:none"
         id="text54"><tspan
           x="0 9.7441702 20.230352 25.480444"
           y="0"
           id="tspan52">PCIe</tspan></text><path
         d="m 200.043,341.785 -40.387,18 40.387,18 40.387,-18 z"
         style="fill:#ffd700;fill-opacity:1;fill-rule:nonzero;stroke:none"
         id="path56" /><path
         d="m 200.043,341.785 -40.387,18 40.387,18 40.387,-18 z"
         style="fill:none;stroke:#000000;stroke-width:1;stroke-linecap:butt;stroke-linejoin:miter;stroke-miterlimit:10;stroke-dasharray:none;stroke-opacity:1"
         id="path58" /><text
         transform="translate(186.04297,363.48437)"
         style="font-variant:normal;font-weight:normal;font-size:14.0002px;font-family:'DejaVu Serif';-inkscape-font-specification:DejaVuSerif;writing-mode:lr-tb;fill:#000000;fill-opacity:1;fill-rule:nonzero;stroke:none"
         id="text62"><tspan
           x="0 9.0161572 17.234301 23.226404"
           y="0"
           id="tspan60">net.</tspan></text><path
         d="m 137.031,290.988 c 12.934,13.914 31.157,33.52 44.68,48.071"
         style="fill:none;stroke:#ff0000;stroke-width:1;stroke-linecap:butt;stroke-linejoin:miter;stroke-miterlimit:10;stroke-dasharray:none;stroke-opacity:1"
         id="path64" /><path
         d="m 184.434,336.848 4.242,9.707 -9.371,-4.942 z"
         style="fill:#ff0000;fill-opacity:1;fill-rule:nonzero;stroke:#ff0000;stroke-width:1;stroke-linecap:butt;stroke-linejoin:miter;stroke-miterlimit:10;stroke-dasharray:none;stroke-opacity:1"
         id="path66" /><text
         transform="translate(166.04297,319.98437)"
         style="font-variant:normal;font-weight:normal;font-size:14.0002px;font-family:'DejaVu Serif';-inkscape-font-specification:DejaVuSerif;writing-mode:lr-tb;fill:#000000;fill-opacity:1;fill-rule:nonzero;stroke:none"
         id="text70"><tspan
           x="0 10.486183 16.478287"
           y="0"
           id="tspan68">Eth</tspan></text><path
         d="m 270.234,290.988 c -14.711,14.207 -35.566,34.352 -50.718,48.989"
         style="fill:none;stroke:#ff0000;stroke-width:1;stroke-linecap:butt;stroke-linejoin:miter;stroke-miterlimit:10;stroke-dasharray:none;stroke-opacity:1"
         id="path72" /><path
         d="m 221.801,342.637 -9.625,4.429 4.762,-9.464 z"
         style="fill:#ff0000;fill-opacity:1;fill-rule:nonzero;stroke:#ff0000;stroke-width:1;stroke-linecap:butt;stroke-linejoin:miter;stroke-miterlimit:10;stroke-dasharray:none;stroke-opacity:1"
         id="path74" /><text
         transform="translate(250.04297,319.98437)"
         style="font-variant:normal;font-weight:normal;font-size:14.0002px;font-family:'DejaVu Serif';-inkscape-font-specification:DejaVuSerif;writing-mode:lr-tb;fill:#000000;fill-opacity:1;fill-rule:nonzero;stroke:none"
         id="text78"><tspan
           x="0 10.486183 16.478287"
           y="0"
           id="tspan76">Eth</tspan></text></g></g></svg>
