<?xml version="1.0" encoding="UTF-8" standalone="no"?>
<!-- Created with Inkscape (http://www.inkscape.org/) -->

<svg
   version="1.1"
   id="svg2"
   xml:space="preserve"
   width="1034.6667"
   height="870.66669"
   viewBox="0 0 1034.6667 870.66669"
   xmlns="http://www.w3.org/2000/svg"
   xmlns:svg="http://www.w3.org/2000/svg"><defs
     id="defs6" /><g
     id="g8"
     transform="matrix(1.3333333,0,0,1.3333333,0,2.51e-5)"><g
       id="g10"><path
         d="m 415.191,490.367 h 96 v 36 h -96 z"
         style="fill:#ffd700;fill-opacity:1;fill-rule:nonzero;stroke:#000000;stroke-width:1;stroke-linecap:butt;stroke-linejoin:miter;stroke-miterlimit:10;stroke-dasharray:none;stroke-opacity:1"
         id="path12" /><text
         transform="translate(423.19141,512.07031)"
         style="font-variant:normal;font-weight:normal;font-size:14.0002px;font-family:'DejaVu Serif';-inkscape-font-specification:DejaVuSerif;writing-mode:lr-tb;fill:#000000;fill-opacity:1;fill-rule:nonzero;stroke:none"
         id="text16"><tspan
           x="0 6.7481174 11.214195 19.48834 24.72443 30.716536 40.460705 52.430912 56.938992 62.931095 70.421227"
           y="0"
           id="tspan14">_leftSwitch</tspan></text><path
         d="m 253.691,577.367 h 107 v 36 h -107 z"
         style="fill:#ffd700;fill-opacity:1;fill-rule:nonzero;stroke:#000000;stroke-width:1;stroke-linecap:butt;stroke-linejoin:miter;stroke-miterlimit:10;stroke-dasharray:none;stroke-opacity:1"
         id="path18" /><text
         transform="translate(261.69141,599.07031)"
         style="font-variant:normal;font-weight:normal;font-size:14.0002px;font-family:'DejaVu Serif';-inkscape-font-specification:DejaVuSerif;writing-mode:lr-tb;fill:#000000;fill-opacity:1;fill-rule:nonzero;stroke:none"
         id="text22"><tspan
           x="0 6.7481174 13.496235 17.962313 26.99247 36.008629 41.972733 51.7169 63.687111 68.19519 74.187294 81.691422"
           y="0"
           id="tspan20">_rightSwitch</tspan></text><path
         d="m 431.625,526.57 c -27.156,14.797 -66.113,36.024 -93.176,50.77"
         style="fill:none;stroke:#ff0000;stroke-width:1;stroke-linecap:butt;stroke-linejoin:miter;stroke-miterlimit:10;stroke-dasharray:none;stroke-opacity:1"
         id="path24" /><text
         transform="translate(395.19141,555.57031)"
         style="font-variant:normal;font-weight:normal;font-size:14.0002px;font-family:'DejaVu Serif';-inkscape-font-specification:DejaVuSerif;writing-mode:lr-tb;fill:#000000;fill-opacity:1;fill-rule:nonzero;stroke:none"
         id="text28"><tspan
           x="0 10.486183 16.478287"
           y="0"
           id="tspan26">Eth</tspan></text><path
         d="m 408.691,338.176 h 109 v 36 h -109 z"
         style="fill:#90ee90;fill-opacity:1;fill-rule:nonzero;stroke:#000000;stroke-width:1;stroke-linecap:butt;stroke-linejoin:miter;stroke-miterlimit:10;stroke-dasharray:none;stroke-opacity:1"
         id="path30" /><text
         transform="translate(416.69141,359.875)"
         style="font-variant:normal;font-weight:normal;font-size:14.0002px;font-family:'DejaVu Serif';-inkscape-font-specification:DejaVuSerif;writing-mode:lr-tb;fill:#000000;fill-opacity:1;fill-rule:nonzero;stroke:none"
         id="text34"><tspan
           x="0 11.998209 17.248301 27.748484 32.228561 39.732693 47.964836 54.726955 59.207031 68.20919 74.201294 78.681374 87.683525"
           y="0"
           id="tspan32">NIC-ser-qt.0.</tspan></text><path
         d="m 463.191,374.406 c 0,28.973 0,87.098 0,115.934"
         style="fill:none;stroke:#ff0000;stroke-width:1;stroke-linecap:butt;stroke-linejoin:miter;stroke-miterlimit:10;stroke-dasharray:none;stroke-opacity:1"
         id="path36" /><text
         transform="translate(463.19141,468.57031)"
         style="font-variant:normal;font-weight:normal;font-size:14.0002px;font-family:'DejaVu Serif';-inkscape-font-specification:DejaVuSerif;writing-mode:lr-tb;fill:#000000;fill-opacity:1;fill-rule:nonzero;stroke:none"
         id="text40"><tspan
           x="0 10.486183 16.478287"
           y="0"
           id="tspan38">Eth</tspan></text><path
         d="m 536.176,130.992 c 0,50.25 -40.735,90.985 -90.985,90.985 -50.246,0 -90.984,-40.735 -90.984,-90.985 0,-50.25 40.738,-90.984 90.984,-90.984 50.25,0 90.985,40.734 90.985,90.984"
         style="fill:#98f5ff;fill-opacity:1;fill-rule:nonzero;stroke:none"
         id="path42" /><path
         d="m 536.176,130.992 c 0,50.25 -40.735,90.985 -90.985,90.985 -50.246,0 -90.984,-40.735 -90.984,-90.985 0,-50.25 40.738,-90.984 90.984,-90.984 50.25,0 90.985,40.734 90.985,90.984"
         style="fill:none;stroke:#000000;stroke-width:1;stroke-linecap:butt;stroke-linejoin:miter;stroke-miterlimit:10;stroke-dasharray:none;stroke-opacity:1"
         id="path44" /><text
         transform="translate(383.19141,134.69141)"
         style="font-variant:normal;font-weight:normal;font-size:14.0002px;font-family:'DejaVu Serif';-inkscape-font-specification:DejaVuSerif;writing-mode:lr-tb;fill:#000000;fill-opacity:1;fill-rule:nonzero;stroke:none"
         id="text48"><tspan
           x="0 7.5041308 15.736275 22.484392 30.716536 38.990681 45.682796 50.204876 59.193031 63.687111 71.177238 79.451385 86.143501 90.651581 99.65374 105.64584 110.12592 119.12807"
           y="0"
           id="tspan46">server-1-ser-qt.0.</tspan></text><path
         d="m 452.438,221.805 c 3.496,43.363 7.363,91.293 9.371,116.203"
         style="fill:none;stroke:#00ff00;stroke-width:1;stroke-linecap:butt;stroke-linejoin:miter;stroke-miterlimit:10;stroke-dasharray:none;stroke-opacity:1"
         id="path50" /><text
         transform="translate(455.19141,251.18359)"
         style="font-variant:normal;font-weight:normal;font-size:14.0002px;font-family:'DejaVu Serif';-inkscape-font-specification:DejaVuSerif;writing-mode:lr-tb;fill:#000000;fill-opacity:1;fill-rule:nonzero;stroke:none"
         id="text54"><tspan
           x="0 9.7441702 20.230352 25.480444"
           y="0"
           id="tspan52">PCIe</tspan></text><path
         d="m 554.691,338.176 h 109 v 36 h -109 z"
         style="fill:#90ee90;fill-opacity:1;fill-rule:nonzero;stroke:#000000;stroke-width:1;stroke-linecap:butt;stroke-linejoin:miter;stroke-miterlimit:10;stroke-dasharray:none;stroke-opacity:1"
         id="path56" /><text
         transform="translate(562.69141,359.875)"
         style="font-variant:normal;font-weight:normal;font-size:14.0002px;font-family:'DejaVu Serif';-inkscape-font-specification:DejaVuSerif;writing-mode:lr-tb;fill:#000000;fill-opacity:1;fill-rule:nonzero;stroke:none"
         id="text60"><tspan
           x="0 11.998209 17.248301 27.748484 32.228561 39.732693 47.964836 54.726955 59.207031 68.20919 74.201294 78.681374 87.683525"
           y="0"
           id="tspan58">NIC-ser-gt.0.</tspan></text><path
         d="M 592.445,374.406 C 564.281,403.379 507.777,461.504 479.746,490.34"
         style="fill:none;stroke:#ff0000;stroke-width:1;stroke-linecap:butt;stroke-linejoin:miter;stroke-miterlimit:10;stroke-dasharray:none;stroke-opacity:1"
         id="path62" /><text
         transform="translate(511.19141,468.57031)"
         style="font-variant:normal;font-weight:normal;font-size:14.0002px;font-family:'DejaVu Serif';-inkscape-font-specification:DejaVuSerif;writing-mode:lr-tb;fill:#000000;fill-opacity:1;fill-rule:nonzero;stroke:none"
         id="text66"><tspan
           x="0 10.486183 16.478287"
           y="0"
           id="tspan64">Eth</tspan></text><path
         d="m 736.176,130.992 c 0,50.25 -40.735,90.985 -90.985,90.985 -50.246,0 -90.984,-40.735 -90.984,-90.985 0,-50.25 40.738,-90.984 90.984,-90.984 50.25,0 90.985,40.734 90.985,90.984"
         style="fill:#98f5ff;fill-opacity:1;fill-rule:nonzero;stroke:none"
         id="path68" /><path
         d="m 736.176,130.992 c 0,50.25 -40.735,90.985 -90.985,90.985 -50.246,0 -90.984,-40.735 -90.984,-90.985 0,-50.25 40.738,-90.984 90.984,-90.984 50.25,0 90.985,40.734 90.985,90.984"
         style="fill:none;stroke:#000000;stroke-width:1;stroke-linecap:butt;stroke-linejoin:miter;stroke-miterlimit:10;stroke-dasharray:none;stroke-opacity:1"
         id="path70" /><text
         transform="translate(583.19141,134.69141)"
         style="font-variant:normal;font-weight:normal;font-size:14.0002px;font-family:'DejaVu Serif';-inkscape-font-specification:DejaVuSerif;writing-mode:lr-tb;fill:#000000;fill-opacity:1;fill-rule:nonzero;stroke:none"
         id="text74"><tspan
           x="0 7.5041308 15.736275 22.484392 30.716536 38.990681 45.682796 50.204876 59.193031 63.687111 71.177238 79.451385 86.143501 90.651581 99.65374 105.64584 110.12592 119.12807"
           y="0"
           id="tspan72">server-2-ser-gt.0.</tspan></text><path
         d="m 630.809,221.164 c -7.012,43.465 -14.786,91.668 -18.829,116.731"
         style="fill:none;stroke:#00ff00;stroke-width:1;stroke-linecap:butt;stroke-linejoin:miter;stroke-miterlimit:10;stroke-dasharray:none;stroke-opacity:1"
         id="path76" /><text
         transform="translate(627.19141,251.18359)"
         style="font-variant:normal;font-weight:normal;font-size:14.0002px;font-family:'DejaVu Serif';-inkscape-font-specification:DejaVuSerif;writing-mode:lr-tb;fill:#000000;fill-opacity:1;fill-rule:nonzero;stroke:none"
         id="text80"><tspan
           x="0 9.7441702 20.230352 25.480444"
           y="0"
           id="tspan78">PCIe</tspan></text><path
         d="m 103.691,490.367 h 103 v 36 h -103 z"
         style="fill:#90ee90;fill-opacity:1;fill-rule:nonzero;stroke:#000000;stroke-width:1;stroke-linecap:butt;stroke-linejoin:miter;stroke-miterlimit:10;stroke-dasharray:none;stroke-opacity:1"
         id="path82" /><text
         transform="translate(111.69141,512.07031)"
         style="font-variant:normal;font-weight:normal;font-size:14.0002px;font-family:'DejaVu Serif';-inkscape-font-specification:DejaVuSerif;writing-mode:lr-tb;fill:#000000;fill-opacity:1;fill-rule:nonzero;stroke:none"
         id="text86"><tspan
           x="0 11.998209 17.248301 27.748484 32.228561 39.732693 44.198769 48.706848 53.200928 62.203083 68.18119 72.67527 81.663422"
           y="0"
           id="tspan84">NIC-cli-qt.0.</tspan></text><path
         d="m 185.953,526.57 c 26.457,14.797 64.418,36.024 90.785,50.77"
         style="fill:none;stroke:#ff0000;stroke-width:1;stroke-linecap:butt;stroke-linejoin:miter;stroke-miterlimit:10;stroke-dasharray:none;stroke-opacity:1"
         id="path88" /><text
         transform="translate(241.19141,555.57031)"
         style="font-variant:normal;font-weight:normal;font-size:14.0002px;font-family:'DejaVu Serif';-inkscape-font-specification:DejaVuSerif;writing-mode:lr-tb;fill:#000000;fill-opacity:1;fill-rule:nonzero;stroke:none"
         id="text92"><tspan
           x="0 10.486183 16.478287"
           y="0"
           id="tspan90">Eth</tspan></text><path
         d="m 206.578,356.176 c 0,46.054 -37.332,83.386 -83.387,83.386 -46.05,0 -83.382,-37.332 -83.382,-83.386 0,-46.051 37.332,-83.387 83.382,-83.387 46.055,0 83.387,37.336 83.387,83.387"
         style="fill:#98f5ff;fill-opacity:1;fill-rule:nonzero;stroke:none"
         id="path94" /><path
         d="m 206.578,356.176 c 0,46.054 -37.332,83.386 -83.387,83.386 -46.05,0 -83.382,-37.332 -83.382,-83.386 0,-46.051 37.332,-83.387 83.382,-83.387 46.055,0 83.387,37.336 83.387,83.387"
         style="fill:none;stroke:#000000;stroke-width:1;stroke-linecap:butt;stroke-linejoin:miter;stroke-miterlimit:10;stroke-dasharray:none;stroke-opacity:1"
         id="path96" /><text
         transform="translate(67.191406,359.875)"
         style="font-variant:normal;font-weight:normal;font-size:14.0002px;font-family:'DejaVu Serif';-inkscape-font-specification:DejaVuSerif;writing-mode:lr-tb;fill:#000000;fill-opacity:1;fill-rule:nonzero;stroke:none"
         id="text100"><tspan
           x="0 7.5041308 11.970208 16.478287 24.71043 33.726589 39.704693 44.184769 53.186928 57.681004 65.171135 69.637215 74.145294 78.639374 87.641525 93.619629 98.113708 107.10187"
           y="0"
           id="tspan98">client-1-cli-qt.0.</tspan></text><path
         d="m 140.41,437.988 c 4.231,19.86 8.348,39.18 11.156,52.367"
         style="fill:none;stroke:#00ff00;stroke-width:1;stroke-linecap:butt;stroke-linejoin:miter;stroke-miterlimit:10;stroke-dasharray:none;stroke-opacity:1"
         id="path102" /><text
         transform="translate(148.19141,468.57031)"
         style="font-variant:normal;font-weight:normal;font-size:14.0002px;font-family:'DejaVu Serif';-inkscape-font-specification:DejaVuSerif;writing-mode:lr-tb;fill:#000000;fill-opacity:1;fill-rule:nonzero;stroke:none"
         id="text106"><tspan
           x="0 9.7441702 20.230352 25.480444"
           y="0"
           id="tspan104">PCIe</tspan></text><path
         d="m 255.691,490.367 h 103 v 36 h -103 z"
         style="fill:#90ee90;fill-opacity:1;fill-rule:nonzero;stroke:#000000;stroke-width:1;stroke-linecap:butt;stroke-linejoin:miter;stroke-miterlimit:10;stroke-dasharray:none;stroke-opacity:1"
         id="path108" /><text
         transform="translate(263.69141,512.07031)"
         style="font-variant:normal;font-weight:normal;font-size:14.0002px;font-family:'DejaVu Serif';-inkscape-font-specification:DejaVuSerif;writing-mode:lr-tb;fill:#000000;fill-opacity:1;fill-rule:nonzero;stroke:none"
         id="text112"><tspan
           x="0 11.998209 17.248301 27.748484 32.228561 39.732693 44.198769 48.706848 53.200928 62.203083 68.18119 72.67527 81.663422"
           y="0"
           id="tspan110">NIC-cli-gt.0.</tspan></text><path
         d="m 307.191,526.57 c 0,14.746 0,35.883 0,50.625"
         style="fill:none;stroke:#ff0000;stroke-width:1;stroke-linecap:butt;stroke-linejoin:miter;stroke-miterlimit:10;stroke-dasharray:none;stroke-opacity:1"
         id="path114" /><text
         transform="translate(307.19141,555.57031)"
         style="font-variant:normal;font-weight:normal;font-size:14.0002px;font-family:'DejaVu Serif';-inkscape-font-specification:DejaVuSerif;writing-mode:lr-tb;fill:#000000;fill-opacity:1;fill-rule:nonzero;stroke:none"
         id="text118"><tspan
           x="0 10.486183 16.478287"
           y="0"
           id="tspan116">Eth</tspan></text><path
         d="m 390.578,356.176 c 0,46.054 -37.332,83.386 -83.387,83.386 -46.05,0 -83.382,-37.332 -83.382,-83.386 0,-46.051 37.332,-83.387 83.382,-83.387 46.055,0 83.387,37.336 83.387,83.387"
         style="fill:#98f5ff;fill-opacity:1;fill-rule:nonzero;stroke:#000000;stroke-width:1;stroke-linecap:butt;stroke-linejoin:miter;stroke-miterlimit:10;stroke-dasharray:none;stroke-opacity:1"
         id="path120" /><text
         transform="translate(251.19141,359.875)"
         style="font-variant:normal;font-weight:normal;font-size:14.0002px;font-family:'DejaVu Serif';-inkscape-font-specification:DejaVuSerif;writing-mode:lr-tb;fill:#000000;fill-opacity:1;fill-rule:nonzero;stroke:none"
         id="text124"><tspan
           x="0 7.5041308 11.970208 16.478287 24.71043 33.726589 39.704693 44.184769 53.186928 57.681004 65.171135 69.637215 74.145294 78.639374 87.641525 93.619629 98.113708 107.10187"
           y="0"
           id="tspan122">client-2-cli-gt.0.</tspan></text><path
         d="m 307.191,439.742 c 0,19.223 0,37.785 0,50.586"
         style="fill:none;stroke:#00ff00;stroke-width:1;stroke-linecap:butt;stroke-linejoin:miter;stroke-miterlimit:10;stroke-dasharray:none;stroke-opacity:1"
         id="path126" /><text
         transform="translate(307.19141,468.57031)"
         style="font-variant:normal;font-weight:normal;font-size:14.0002px;font-family:'DejaVu Serif';-inkscape-font-specification:DejaVuSerif;writing-mode:lr-tb;fill:#000000;fill-opacity:1;fill-rule:nonzero;stroke:none"
         id="text130"><tspan
           x="0 9.7441702 20.230352 25.480444"
           y="0"
           id="tspan128">PCIe</tspan></text></g></g></svg>
